<?xml version="1.0" encoding="UTF-8"?>
<svg version="1.1" xmlns="http://www.w3.org/2000/svg" width="1884" height="897">
<path d="M0 0 C621.72 0 1243.44 0 1884 0 C1884 296.01 1884 592.02 1884 897 C1262.28 897 640.56 897 0 897 C0 600.99 0 304.98 0 0 Z " fill="#EDB152" transform="translate(0,0)"/>
<path d="M0 0 C43.89 0 87.78 0 133 0 C133 296.01 133 592.02 133 897 C89.11 897 45.22 897 0 897 C0 600.99 0 304.98 0 0 Z " fill="#C6812A" transform="translate(0,0)"/>
<path d="M0 0 C34.65 0 69.3 0 105 0 C105 296.01 105 592.02 105 897 C70.35 897 35.7 897 0 897 C0 600.99 0 304.98 0 0 Z " fill="#B66810" transform="translate(1779,0)"/>
<path d="M0 0 C29.04 0 58.08 0 88 0 C88 296.01 88 592.02 88 897 C77.44 897 66.88 897 56 897 C56 895.02 56 893.04 56 891 C57.03125 890.649375 58.0625 890.29875 59.125 889.9375 C63.58139841 888.02632101 66.38486742 885.03755267 69 881 C69.94240924 878.24235649 69.94240924 878.24235649 70 876 C67.36 876 64.72 876 62 876 C61.67 877.32 61.34 878.64 61 880 C60.34 880 59.68 880 59 880 C59.33 878.02 59.66 876.04 60 874 C60.9590625 873.814375 60.9590625 873.814375 61.9375 873.625 C62.618125 873.41875 63.29875 873.2125 64 873 C64.33 872.34 64.66 871.68 65 871 C61.49223216 869.39644899 58.85645121 868.77963136 55 869 C55.33 866.36 55.66 863.72 56 861 C55.34 861 54.68 861 54 861 C54 859.02 54 857.04 54 855 C55.32 855 56.64 855 58 855 C57.67 853.68 57.34 852.36 57 851 C58.65 850.67 60.3 850.34 62 850 C62 847.36 62 844.72 62 842 C61.01 841.67 60.02 841.34 59 841 C59.680625 840.443125 60.36125 839.88625 61.0625 839.3125 C61.701875 838.549375 62.34125 837.78625 63 837 C62.835 836.175 62.67 835.35 62.5 834.5 C62.335 833.675 62.17 832.85 62 832 C62.99 831.071875 62.99 831.071875 64 830.125 C64.66 829.42375 65.32 828.7225 66 828 C65.91256309 824.47105052 65.91256309 824.47105052 65 821 C64.855625 820.236875 64.71125 819.47375 64.5625 818.6875 C64.06056017 816.76241778 64.06056017 816.76241778 62 815 C62.495 814.071875 62.495 814.071875 63 813.125 C65.17661256 806.32308576 64.31005322 799.64140302 62 793 C59.13275314 793.57344937 58.1385485 793.8614515 56 796 C55.505 794.515 55.505 794.515 55 793 C53.68 793 52.36 793 51 793 C51.185625 792.071875 51.37125 791.14375 51.5625 790.1875 C52.24123881 786.98656229 52.24123881 786.98656229 51 784 C52.65 784.33 54.3 784.66 56 785 C56.495 786.485 56.495 786.485 57 788 C59.31 788 61.62 788 64 788 C65.00551806 782.73077692 65.00551806 782.73077692 64.25 777.5625 C62.98713894 775.69390671 62.98713894 775.69390671 60 775 C60.66 772.36 61.32 769.72 62 767 C59.69 767 57.38 767 55 767 C55.875 762.125 55.875 762.125 57 761 C58.65 761 60.3 761 62 761 C62 757.37 62 753.74 62 750 C57.69623851 751.7215046 55.47710284 753.18072743 52 756 C51.34 756 50.68 756 50 756 C49.505 753.03 49.505 753.03 49 750 C49.66 749.67 50.32 749.34 51 749 C50.34 748.34 49.68 747.68 49 747 C49.99 744.69 50.98 742.38 52 740 C50.35 739.34 48.7 738.68 47 738 C47 735.69 47 733.38 47 731 C45.68 731 44.36 731 43 731 C43.05995322 729.20739868 43.1487241 727.41574205 43.25 725.625 C43.29640625 724.62726562 43.3428125 723.62953125 43.390625 722.6015625 C44 720 44 720 46.046875 718.6484375 C47.01367188 718.32746094 47.01367188 718.32746094 48 718 C47.67 715.36 47.34 712.72 47 710 C46.01 709.67 45.02 709.34 44 709 C44.33 706.36 44.66 703.72 45 701 C46.98 701 48.96 701 51 701 C50.95359375 700.37996094 50.9071875 699.75992188 50.859375 699.12109375 C50.50928069 690.53127976 52.54115443 683.13394897 55 675 C52.36 675 49.72 675 47 675 C47 673.68 47 672.36 47 671 C46.34 670.67 45.68 670.34 45 670 C46.6396875 669.938125 46.6396875 669.938125 48.3125 669.875 C52.20920985 669.39039953 52.20920985 669.39039953 53.9375 666.125 C55.16095137 663.07672804 55.16095137 663.07672804 55 660 C51.04 658.515 51.04 658.515 47 657 C47 655.02 47 653.04 47 651 C46.01 650.67 45.02 650.34 44 650 C44.66 649.01 45.32 648.02 46 647 C46.30066154 644.24582682 46.50925299 641.57354853 46.625 638.8125 C46.66367188 638.06291016 46.70234375 637.31332031 46.7421875 636.54101562 C46.83628216 634.69440801 46.91922319 632.8472381 47 631 C48.98 631.33 50.96 631.66 53 632 C54.07525194 629.34771188 55.09456151 626.71631546 56 624 C54.68 624 53.36 624 52 624 C52 623.01 52 622.02 52 621 C51.41734375 621.23589844 50.8346875 621.47179687 50.234375 621.71484375 C48 622 48 622 46.078125 620.56640625 C45.47484375 619.90511719 44.8715625 619.24382813 44.25 618.5625 C43.32960938 617.57443359 43.32960938 617.57443359 42.390625 616.56640625 C41.93171875 616.04949219 41.4728125 615.53257812 41 615 C41.56332031 614.75765625 42.12664062 614.5153125 42.70703125 614.265625 C45.45733723 612.74756855 47.43541268 610.93880553 49.6875 608.75 C50.47511719 608.00234375 51.26273438 607.2546875 52.07421875 606.484375 C54.30420287 603.60755979 54.69431887 601.58527699 55 598 C53.35 597.67 51.7 597.34 50 597 C49.505 594.03 49.505 594.03 49 591 C46.69 591.33 44.38 591.66 42 592 C42.28359887 590.5608866 42.57721399 589.12374482 42.875 587.6875 C43.03742188 586.88699219 43.19984375 586.08648438 43.3671875 585.26171875 C44 583 44 583 46 580 C46.16713569 577.37468476 46.16713569 577.37468476 46 575 C47.65 575 49.3 575 51 575 C51 574.01 51 573.02 51 572 C52.65 571.67 54.3 571.34 56 571 C56.93423645 567.98968256 57.04449911 567.13349732 56 564 C55.01 564 54.02 564 53 564 C53.020625 563.05125 53.04125 562.1025 53.0625 561.125 C53.22551826 558.09333717 53.22551826 558.09333717 52 556 C47.05 556.33 42.1 556.66 37 557 C37 557.66 37 558.32 37 559 C36.505 558.731875 36.01 558.46375 35.5 558.1875 C32.6912624 556.85334964 29.8323576 555.81603416 26.90234375 554.78125 C25 554 25 554 22 552 C21.2575 552.495 20.515 552.99 19.75 553.5 C17 555 17 555 13 555 C12.67 556.98 12.34 558.96 12 561 C10.68 561.33 9.36 561.66 8 562 C8 563.98 8 565.96 8 568 C4.49223216 569.60355101 1.85645121 570.22036864 -2 570 C-2.67408308 568.73308493 -3.33900497 567.46129251 -4 566.1875 C-4.37125 565.47980469 -4.7425 564.77210938 -5.125 564.04296875 C-6 562 -6 562 -6 559 C-9.63 561.31 -13.26 563.62 -17 566 C-17.495 564.515 -17.495 564.515 -18 563 C-19.98 563 -21.96 563 -24 563 C-23.7069201 558.99457467 -22.88135254 556.59968867 -20.4375 553.5 C-17.94147694 550.27955645 -17.49589538 548.13365789 -18 544 C-16.02 543.34 -14.04 542.68 -12 542 C-12.99 539.525 -12.99 539.525 -14 537 C-14.8353125 537.9590625 -14.8353125 537.9590625 -15.6875 538.9375 C-18 541 -18 541 -20.625 541.4375 C-21.40875 541.623125 -22.1925 541.80875 -23 542 C-23.72985015 543.63998201 -24.38522875 545.3135011 -25 547 C-26.69371487 550.59193401 -28.43090645 553.95536318 -31 557 C-34.875 557.625 -34.875 557.625 -38 557 C-39.7955979 553.40880419 -39.06295516 549.77290676 -38 546 C-35.3018655 541.53078235 -32.35124538 537.90083025 -28 535 C-27.63441883 531.64496524 -27.63441883 531.64496524 -27.8125 527.875 C-27.83957031 526.59367188 -27.86664062 525.31234375 -27.89453125 523.9921875 C-27.92933594 523.00476563 -27.96414063 522.01734375 -28 521 C-26.68 521 -25.36 521 -24 521 C-23.9175 520.401875 -23.835 519.80375 -23.75 519.1875 C-22.76184752 516.30538859 -21.56044714 515.61343244 -19 514 C-16.421875 513.26953125 -16.421875 513.26953125 -13.75 512.8125 C-12.85796875 512.65394531 -11.9659375 512.49539063 -11.046875 512.33203125 C-10.37140625 512.22246094 -9.6959375 512.11289062 -9 512 C-8.505 513.485 -8.505 513.485 -8 515 C-7.401875 514.360625 -6.80375 513.72125 -6.1875 513.0625 C-3.10306046 510.15431414 -0.64107562 509.86124426 3.4375 509.875 C4.19933594 509.87242187 4.96117187 509.86984375 5.74609375 509.8671875 C7.95315859 509.99723985 9.87969276 510.39143801 12 511 C12 510.01 12 509.02 12 508 C11.34 507.67 10.68 507.34 10 507 C10.33 504.36 10.66 501.72 11 499 C13.97 498.34 16.94 497.68 20 497 C19.5978125 495.0509375 19.5978125 495.0509375 19.1875 493.0625 C19.03667969 492.33160156 18.88585938 491.60070312 18.73046875 490.84765625 C18.48941406 490.23792969 18.24835938 489.62820313 18 489 C17.01 488.67 16.02 488.34 15 488 C14.60878452 485.43904329 14.23666645 482.8776528 13.875 480.3125 C13.76285156 479.59126953 13.65070313 478.87003906 13.53515625 478.12695312 C12.94366068 473.80903549 12.93337364 470.88066506 15 467 C13.68 466.01 12.36 465.02 11 464 C11.14745267 462.05904142 11.34451752 460.12180766 11.5625 458.1875 C11.66691406 457.10855469 11.77132813 456.02960938 11.87890625 454.91796875 C13 452 13 452 15.95703125 450.21484375 C20.55145548 448.61532094 25.31862153 447.99975821 30.125 447.375 C31.87773679 447.13377415 33.63034548 446.89161543 35.3828125 446.6484375 C36.14996582 446.54708496 36.91711914 446.44573242 37.70751953 446.34130859 C40.15217687 445.97734363 42.57639413 445.48472117 45 445 C44.01 439.555 44.01 439.555 43 434 C40.586875 434.433125 40.586875 434.433125 38.125 434.875 C36.61486328 435.14570312 36.61486328 435.14570312 35.07421875 435.421875 C32.34601701 435.93492946 29.64674234 436.52198899 26.9375 437.125 C20.62848787 438.40290198 14.23667723 438.77987364 8 437 C8 439.31 8 441.62 8 444 C6.68 444.33 5.36 444.66 4 445 C4 447.97 4 450.94 4 454 C4.99 454 5.98 454 7 454 C6.9375 457.25 6.9375 457.25 6 461 C3.75762805 463.10074846 1.93664637 463.80543199 -1 465 C-3.23046875 464.59375 -3.23046875 464.59375 -5 464 C-5.41676948 462.23397681 -5.8077738 460.46185699 -6.1875 458.6875 C-6.40792969 457.70136719 -6.62835937 456.71523438 -6.85546875 455.69921875 C-7 453 -7 453 -5.625 451.375 C-4.820625 450.694375 -4.820625 450.694375 -4 450 C-3.25613932 447.69011685 -2.57809297 445.35684056 -2 443 C-3.98 442.67 -5.96 442.34 -8 442 C-8.33 442.66 -8.66 443.32 -9 444 C-11.31 443.67 -13.62 443.34 -16 443 C-16.18451025 428.21867882 -16.18451025 428.21867882 -15 422 C-13.02 422 -11.04 422 -9 422 C-8.97421875 421.05898438 -8.9484375 420.11796875 -8.921875 419.1484375 C-8.59977554 412.0768902 -8.38812856 407.55829618 -4 402 C-4.11443256 399.68973726 -4.11443256 399.68973726 -5 398 C-7.64 398.33 -10.28 398.66 -13 399 C-14.37494222 396.73538929 -15.07991957 395.54345306 -14.6875 392.875 C-14 391 -14 391 -13 389 C-12.34 389 -11.68 389 -11 389 C-11 388.34 -11 387.68 -11 387 C-10.154375 386.525625 -9.30875 386.05125 -8.4375 385.5625 C-5.70997698 383.27517407 -5.70997698 383.27517407 -5.9609375 380.3984375 C-6.19281501 378.44551354 -6.47192253 376.49754478 -6.80078125 374.55859375 C-7 372 -7 372 -5 369 C-9.87685861 370.35468295 -11.48592381 372.71675909 -14 377 C-14.66 376.67 -15.32 376.34 -16 376 C-16.74940605 372.69012329 -17.29390721 370.05806597 -16.375 366.75 C-14.58849165 364.4762621 -12.50053749 363.41055961 -10 362 C-9.67 361.34 -9.34 360.68 -9 360 C-12.63 359.34 -16.26 358.68 -20 358 C-18.50829734 353.0276578 -16.39542583 348.58154261 -14 344 C-14.61875 343.360625 -15.2375 342.72125 -15.875 342.0625 C-18.65049925 338.06251578 -19.14508391 334.77328151 -20 330 C-16.37 330 -12.74 330 -9 330 C-9.66 329.01 -10.32 328.02 -11 327 C-12.32 327.33 -13.64 327.66 -15 328 C-15.81788791 325.10441295 -16.18892672 322.44535913 -16.25 319.4375 C-16.27578125 318.67308594 -16.3015625 317.90867187 -16.328125 317.12109375 C-15.91586333 314.45611654 -15.13825885 313.59737541 -13 312 C-10.3125 311.8125 -10.3125 311.8125 -8 312 C-8.4021875 310.39125 -8.4021875 310.39125 -8.8125 308.75 C-8.874375 307.5125 -8.93625 306.275 -9 305 C-6.6875 302.5625 -6.6875 302.5625 -4 301 C-3.34 301 -2.68 301 -2 301 C-2 300.34 -2 299.68 -2 299 C-3.32 298.67 -4.64 298.34 -6 298 C-6.495 293.05 -6.495 293.05 -7 288 C-7.66 288 -8.32 288 -9 288 C-9.19335938 288.60328125 -9.38671875 289.2065625 -9.5859375 289.828125 C-9.84632812 290.62734375 -10.10671875 291.4265625 -10.375 292.25 C-10.63023438 293.03890625 -10.88546875 293.8278125 -11.1484375 294.640625 C-13.06155186 299.94118039 -14.83853884 302.32368681 -20 305 C-23.03622343 305.64764844 -24.79690961 305.45758434 -28 305 C-30.875 302.5 -30.875 302.5 -33 300 C-35.05027772 299.82239558 -35.05027772 299.82239558 -36.6875 301.0625 C-38.34515389 303.07801156 -38.34515389 303.07801156 -37.75 306.375 C-37.5025 307.57125 -37.255 308.7675 -37 310 C-36.7215625 311.4540625 -36.7215625 311.4540625 -36.4375 312.9375 C-36.293125 313.618125 -36.14875 314.29875 -36 315 C-37.2065625 315.4640625 -37.2065625 315.4640625 -38.4375 315.9375 C-40.89080405 316.76335345 -40.89080405 316.76335345 -42 318 C-43.99958364 318.04080783 -46.00045254 318.04254356 -48 318 C-50.37590142 314.29583874 -50.20500286 311.07015427 -50.125 306.75 C-50.10695313 305.48671875 -50.08890625 304.2234375 -50.0703125 302.921875 C-50.04710937 301.95765625 -50.02390625 300.9934375 -50 300 C-54.29 300 -58.58 300 -63 300 C-62.01 297.03 -61.02 294.06 -60 291 C-58.02 291 -56.04 291 -54 291 C-53.67 289.35 -53.34 287.7 -53 286 C-47.53018606 283.78643467 -42.67528546 283.91461696 -36.921875 284.34179688 C-32.95007145 284.48960254 -30.66688543 284.10244512 -27.7109375 281.5390625 C-26.36902344 280.28222656 -26.36902344 280.28222656 -25 279 C-21.625 278.1875 -21.625 278.1875 -19 278 C-19 276.68 -19 275.36 -19 274 C-19.99 274 -20.98 274 -22 274 C-20.79157144 269.56909529 -19.48331435 267.01887244 -16 264 C-16.495 263.484375 -16.99 262.96875 -17.5 262.4375 C-19.49649241 259.19319983 -19.21564385 256.73782666 -19 253 C-16.00519083 252.1276588 -13.36424089 251.89170234 -10.25 251.9375 C-9.45078125 251.94652344 -8.6515625 251.95554688 -7.828125 251.96484375 C-6.92320313 251.98224609 -6.92320313 251.98224609 -6 252 C-6.33 250.02 -6.66 248.04 -7 246 C-7.804375 246.7425 -7.804375 246.7425 -8.625 247.5 C-11.59358445 249.37489544 -13.55312427 249.23501425 -17 249 C-17 248.01 -17 247.02 -17 246 C-18.32 246 -19.64 246 -21 246 C-21.495 240.06 -21.495 240.06 -22 234 C-23.32 233.67 -24.64 233.34 -26 233 C-25.26595202 230.17327138 -24.47149711 227.53424501 -23 225 C-21 224.66666667 -19 224.33333333 -17 224 C-15.9152903 222.04484424 -15.32273227 220.16272713 -14.73828125 218.0078125 C-13.81654862 215.50108989 -13.23020167 214.50974558 -11 213 C-8.37060795 212.62355152 -5.94927528 212.39866913 -3.3125 212.3125 C-2.61060547 212.27833984 -1.90871094 212.24417969 -1.18554688 212.20898438 C0.54241387 212.12670053 2.27118072 212.0616676 4 212 C3.95101563 211.05898437 3.90203125 210.11796875 3.8515625 209.1484375 C4.05403226 204.85394728 6.02061096 203.97938904 9 201 C9.99255888 198.33156281 10.47503236 195.81573555 11 193 C12.32 193 13.64 193 15 193 C15 192.01 15 191.02 15 190 C4.11693383 192.22302685 4.11693383 192.22302685 -4 199 C-4.99 198.67 -5.98 198.34 -7 198 C-7.495 195.525 -7.495 195.525 -8 193 C-8.99 192.67 -9.98 192.34 -11 192 C-10.79375 192.721875 -10.5875 193.44375 -10.375 194.1875 C-9.91792662 197.61555034 -10.24526241 199.02457538 -12 202 C-15.89096975 205.1835207 -19.00534117 206.52431821 -24 207 C-28.0744186 201.56744186 -28.0744186 201.56744186 -27.75 199.09375 C-26.91285742 196.75672698 -25.96731292 194.50894447 -24.9375 192.25 C-24.39416016 191.05117188 -24.39416016 191.05117188 -23.83984375 189.828125 C-23.56269531 189.22484375 -23.28554687 188.6215625 -23 188 C-24.65 188 -26.3 188 -28 188 C-27.91621094 187.18015625 -27.83242187 186.3603125 -27.74609375 185.515625 C-27.59333984 183.89914063 -27.59333984 183.89914063 -27.4375 182.25 C-27.28087891 180.64898437 -27.28087891 180.64898437 -27.12109375 179.015625 C-27.01282185 176.31930532 -27.25816481 174.5465984 -28 172 C-27.979375 171.01 -27.95875 170.02 -27.9375 169 C-28.00015007 165.99279651 -28.4479829 164.52202779 -30 162 C-29.360625 161.896875 -28.72125 161.79375 -28.0625 161.6875 C-27.381875 161.460625 -26.70125 161.23375 -26 161 C-25.67 160.01 -25.34 159.02 -25 158 C-22.69 158.33 -20.38 158.66 -18 159 C-18 160.32 -18 161.64 -18 163 C-17.34 163 -16.68 163 -16 163 C-16.268125 162.01 -16.53625 161.02 -16.8125 160 C-17.4149353 155.73992179 -15.9497194 153.35460716 -13.51171875 149.94140625 C-13.01285156 149.30074219 -12.51398438 148.66007813 -12 148 C-11.55269531 147.36964844 -11.10539062 146.73929688 -10.64453125 146.08984375 C-9.16937495 144.27585603 -8.07527886 143.08836847 -6 142 C-2.78782409 142.10531724 -0.00372488 142.89195927 3 144 C6.20697862 138.27007976 7.04860454 132.7852881 8.05859375 126.36328125 C9 123 9 123 10.97265625 121.04296875 C13 120 13 120 15 120 C14.67 122.97 14.34 125.94 14 129 C15.32 129 16.64 129 18 129 C18.185625 127.824375 18.185625 127.824375 18.375 126.625 C19 124 19 124 21 122 C20.54947266 120.948125 20.54947266 120.948125 20.08984375 119.875 C17.59875969 113.65995639 16.51405366 109.56292969 18 103 C18.99 102.67 19.98 102.34 21 102 C21 101.34 21 100.68 21 100 C19.68 100 18.36 100 17 100 C16.86102295 100.55397461 16.7220459 101.10794922 16.57885742 101.67871094 C14.73033524 108.12771112 11.74457598 112.2945261 7.3125 117.25 C2.73663403 122.00230251 2.73663403 122.00230251 0.60546875 127.984375 C0.73566406 128.64953125 0.86585937 129.3146875 1 130 C-3.0527516 130.98248524 -6.83861737 131.08159574 -11 131 C-11 129.02 -11 127.04 -11 125 C-10.01 124.67 -9.02 124.34 -8 124 C-8 122.02 -8 120.04 -8 118 C-5.525 117.01 -5.525 117.01 -3 116 C-3.08378906 115.38511719 -3.16757813 114.77023438 -3.25390625 114.13671875 C-3.40666016 112.92435547 -3.40666016 112.92435547 -3.5625 111.6875 C-3.71912109 110.48673828 -3.71912109 110.48673828 -3.87890625 109.26171875 C-4 107 -4 107 -3 104 C-5.475 104.495 -5.475 104.495 -8 105 C-8 102.03 -8 99.06 -8 96 C-8.99 96.495 -8.99 96.495 -10 97 C-12 97 -14 97 -16 97 C-16.99 97.495 -16.99 97.495 -18 98 C-19.67654729 97.72057545 -21.34608154 97.39171753 -23 97 C-22.34 95.68 -21.68 94.36 -21 93 C-19.68 93 -18.36 93 -17 93 C-17.08894531 92.27167969 -17.17789062 91.54335937 -17.26953125 90.79296875 C-16.90403581 87.00558847 -15.42615697 85.88517776 -12.6875 83.3125 C-11.88699219 82.54550781 -11.08648438 81.77851562 -10.26171875 80.98828125 C-8 79 -8 79 -5 77 C-4.27617533 74.94074861 -4.27617533 74.94074861 -4 73 C-5.65 72.67 -7.3 72.34 -9 72 C-8.6875 69.625 -8.6875 69.625 -8 67 C-7.01 66.34 -6.02 65.68 -5 65 C-4.01 66.485 -4.01 66.485 -3 68 C2.68458633 64.5892482 5.22626433 61.89434454 6.94921875 55.44921875 C7.19285156 54.20785156 7.43648437 52.96648438 7.6875 51.6875 C7.93886719 50.43324219 8.19023438 49.17898437 8.44921875 47.88671875 C8.63097656 46.93410156 8.81273437 45.98148438 9 45 C7.35 44.67 5.7 44.34 4 44 C4.144375 43.46375 4.28875 42.9275 4.4375 42.375 C5.09679527 39.59130888 5.62185688 36.83607337 6 34 C5.67 33.67 5.34 33.34 5 33 C3.85252535 34.62384142 2.7070709 36.24911056 1.5625 37.875 C0.60537109 39.23238281 0.60537109 39.23238281 -0.37109375 40.6171875 C-1.99518138 42.87738581 -1.99518138 42.87738581 -3 45 C-5.97 44.505 -5.97 44.505 -9 44 C-8.39301257 39.87248551 -6.96189209 36.6678852 -5 33 C-7.64 32.67 -10.28 32.34 -13 32 C-10.46478873 27.18309859 -10.46478873 27.18309859 -7.9375 26.1875 C-5.43815524 24.65564353 -5.43872111 23.66407625 -4.75 20.875 C-4.5025 19.59625 -4.255 18.3175 -4 17 C-5.32 16.34 -6.64 15.68 -8 15 C-7.13375 13.7934375 -7.13375 13.7934375 -6.25 12.5625 C-3.4086765 8.25388002 -3.4086765 8.25388002 0 0 Z " fill="#E19A37" transform="translate(1691,0)"/>
<path d="M0 0 C20.46 0 40.92 0 62 0 C62 296.01 62 592.02 62 897 C41.54 897 21.08 897 0 897 C0 600.99 0 304.98 0 0 Z " fill="#B56811" transform="translate(71,0)"/>
<path d="M0 0 C12.54 0 25.08 0 38 0 C38 296.01 38 592.02 38 897 C24.8 897 11.6 897 -2 897 C-2.11249297 836.72923827 -2.22386249 776.45847457 -2.32835388 716.18769836 C-2.32990168 715.29513811 -2.33144947 714.40257785 -2.33304417 713.48297032 C-2.36667727 694.08348049 -2.40008068 674.68399026 -2.4332476 655.28449963 C-2.44951493 645.77047689 -2.465833 636.25645424 -2.48217773 626.74243164 C-2.48380334 625.79569095 -2.48542894 624.84895026 -2.4871038 623.87352046 C-2.53978238 593.20767182 -2.59580891 562.5418304 -2.65357857 531.87599096 C-2.71294526 500.35298691 -2.76892044 468.82997861 -2.82065109 437.30696106 C-2.82796555 432.85072131 -2.83531863 428.39448161 -2.84269524 423.93824196 C-2.84414581 423.06122244 -2.84559638 422.18420292 -2.84709091 421.28060706 C-2.87050502 407.18436382 -2.89747585 393.08812955 -2.92578938 378.9918954 C-2.95420362 364.80750512 -2.9788407 350.62311222 -2.99967117 336.43870874 C-3.01214803 328.0199071 -3.02747202 319.60112211 -3.04695946 311.1823337 C-3.05971899 305.54635556 -3.0686771 299.91037934 -3.07465136 294.27438995 C-3.07815274 291.07094436 -3.08378698 287.86752939 -3.09292836 284.66409429 C-3.12833574 271.92140758 -3.01780503 259.24167558 -2.21585697 246.52137882 C-1.98528377 242.759927 -2.00096743 239.02497966 -2.00672913 235.25863647 C-2.09868679 173.04359128 -2.17920236 110.82919825 -1.59428024 48.61615753 C-1.56243471 45.18045633 -1.53250484 41.74474269 -1.50296021 38.309021 C-1.45644965 32.97100771 -1.4043395 27.63308081 -1.34712219 22.29517174 C-1.32684164 20.35419934 -1.30807361 18.41321048 -1.29090881 16.47220802 C-1.26716958 13.8566365 -1.23720895 11.24121545 -1.20532227 8.62573242 C-1.19956712 7.8577149 -1.19381197 7.08969738 -1.18788242 6.2984066 C-1.11443286 1.11443286 -1.11443286 1.11443286 0 0 Z " fill="#C17C27" transform="translate(1846,0)"/>
<path d="M0 0 C2.97 0 5.94 0 9 0 C8.67 1.65 8.34 3.3 8 5 C8.99 5 9.98 5 11 5 C11 5.66 11 6.32 11 7 C11.99 7.495 11.99 7.495 13 8 C12.34 9.65 11.68 11.3 11 13 C9.35 13 7.7 13 6 13 C6 13.99 6 14.98 6 16 C4.35 16 2.7 16 1 16 C1.37125 16.9590625 1.37125 16.9590625 1.75 17.9375 C2.07755029 21.94999102 0.74520496 24.3542304 -0.9921875 27.9140625 C-2.10718433 30.10826742 -2.10718433 30.10826742 -3 33 C0.465 32.505 0.465 32.505 4 32 C4.2475 32.969375 4.495 33.93875 4.75 34.9375 C5.36875 36.4534375 5.36875 36.4534375 6 38 C8.03243548 38.96877057 8.03243548 38.96877057 10 39 C10.33984375 41.63671875 10.33984375 41.63671875 10 45 C8.22603214 47.21234541 6.63576865 48.93962162 4.5625 50.8125 C3.7880957 51.54629883 3.7880957 51.54629883 2.99804688 52.29492188 C1.67752642 53.54294317 0.33998436 54.77290044 -1 56 C-1.33 56.33 -1.66 56.66 -2 57 C0.24958334 59.58333229 0.24958334 59.58333229 3 62 C4.32 62 5.64 62 7 62 C7 62.99 7 63.98 7 65 C8.32 65 9.64 65 11 65 C10.37240135 67.92879371 9.41377341 70.36095629 8 73 C5.03 72.505 5.03 72.505 2 72 C2.02320313 73.12019531 2.04640625 74.24039063 2.0703125 75.39453125 C2.08907237 76.86718084 2.10727234 78.33983763 2.125 79.8125 C2.14175781 80.55048828 2.15851563 81.28847656 2.17578125 82.04882812 C2.21074628 85.91246426 2.19397555 87.70903668 0 91 C0.66 91.33 1.32 91.66 2 92 C2 93.98 2 95.96 2 98 C3.3921875 98.185625 3.3921875 98.185625 4.8125 98.375 C8 99 8 99 11 101 C10.43623218 104.94637474 9.4640248 107.83196811 7 111 C4.3125 111.8125 4.3125 111.8125 2 112 C2 113.32 2 114.64 2 116 C4.64 116 7.28 116 10 116 C9.53638177 119.70894586 8.96583281 123.12812696 8 126.75 C6.67884788 131.75854685 6.35990843 136.84762672 6 142 C4.02 142 2.04 142 0 142 C-0.59888444 147.21515567 -0.59888444 147.21515567 1.4375 151.625 C1.953125 152.07875 2.46875 152.5325 3 153 C3.8125 156.0625 3.8125 156.0625 4 159 C3.34 159.66 2.68 160.32 2 161 C1.01 161 0.02 161 -1 161 C-0.690625 162.3303125 -0.690625 162.3303125 -0.375 163.6875 C0.02550239 167.2252711 -0.43316484 168.86632967 -2 172 C-0.68 172 0.64 172 2 172 C2.0825 173.11375 2.165 174.2275 2.25 175.375 C2.57873787 179.05753944 2.57873787 179.05753944 5.0625 180.4375 C5.701875 180.623125 6.34125 180.80875 7 181 C6.125 185.75 6.125 185.75 5 188 C5.66 188.66 6.32 189.32 7 190 C6.01 190.33 5.02 190.66 4 191 C4.33 192.98 4.66 194.96 5 197 C5.53109375 196.566875 6.0621875 196.13375 6.609375 195.6875 C7.66898438 194.8521875 7.66898438 194.8521875 8.75 194 C9.79414062 193.1646875 9.79414062 193.1646875 10.859375 192.3125 C13 191 13 191 17 191 C17 194.63 17 198.26 17 202 C15.35 202.33 13.7 202.66 12 203 C10.62533375 205.47636012 10.62533375 205.47636012 10 208 C12.31 208 14.62 208 17 208 C16.01 211.96 16.01 211.96 15 216 C16.32 216.33 17.64 216.66 19 217 C21.00554719 219.57856067 21.015367 220.84633 20.6875 224.125 C20 227 20 227 19 229 C16.35139573 229.59355614 13.70802678 229.74209269 11 230 C10.67 228.68 10.34 227.36 10 226 C9.01 226 8.02 226 7 226 C7.33 226.99 7.66 227.98 8 229 C7.0625 231.6875 7.0625 231.6875 6 234 C7.32 234 8.64 234 10 234 C10.33 234.66 10.66 235.32 11 236 C11.66 235.34 12.32 234.68 13 234 C14.32 234 15.64 234 17 234 C19.99784061 239.74586118 20.66531007 244.54322026 20 251 C19 254.125 19 254.125 18 256 C18.99 256.66 19.98 257.32 21 258 C20.34 258 19.68 258 19 258 C19.495 258.886875 19.99 259.77375 20.5 260.6875 C21.98467141 263.96614937 22.62800281 265.50112721 22 269 C21.319375 269.845625 20.63875 270.69125 19.9375 271.5625 C18.9784375 272.7690625 18.9784375 272.7690625 18 274 C18.32380126 275.33568021 18.65657551 276.66923011 19 278 C17.0625 280.25 17.0625 280.25 15 282 C15.66 282.33 16.32 282.66 17 283 C17 285.64 17 288.28 17 291 C15.68 291.66 14.36 292.32 13 293 C13 293.99 13 294.98 13 296 C11.68 296 10.36 296 9 296 C9 297.98 9 299.96 9 302 C9.66 302 10.32 302 11 302 C10.67 304.64 10.34 307.28 10 310 C11.0828125 309.6596875 11.0828125 309.6596875 12.1875 309.3125 C15.75584692 308.91601701 17.13871099 309.95622213 20 312 C19.67 312.99 19.34 313.98 19 315 C17.68 315 16.36 315 15 315 C14.67 316.98 14.34 318.96 14 321 C14.66 320.67 15.32 320.34 16 320 C16.33 319.01 16.66 318.02 17 317 C19.64 317 22.28 317 25 317 C25.32865084 320.19584606 25.2090949 321.67096742 23.4609375 324.421875 C17.77899416 330.76351963 17.77899416 330.76351963 13.5 332.0625 C12.2625 332.0315625 12.2625 332.0315625 11 332 C11 333.98 11 335.96 11 338 C-15.4 338 -41.8 338 -69 338 C-68.67 336.35 -68.34 334.7 -68 333 C-68.15339008 330.60328003 -68.3213082 328.20746647 -68.5 325.8125 C-68.55850668 319.82726706 -67.85381773 316.76775458 -63.875 312.25 C-61.27565053 309.67690659 -59.11058703 308.05414015 -55.81640625 306.44140625 C-52.6968735 305.16377354 -52.6968735 305.16377354 -51.0625 301.6875 C-49.96559958 297.88061029 -49.98538009 295.78176511 -51 292 C-53.09350689 295.4019487 -53.17942163 298.05272412 -53 302 C-56.63 302.66 -60.26 303.32 -64 304 C-66.97 300.04 -66.97 300.04 -70 296 C-70.66 297.32 -71.32 298.64 -72 300 C-72.77923828 299.65775391 -72.77923828 299.65775391 -73.57421875 299.30859375 C-76.75061124 297.99928594 -79.35346895 297.01436736 -82.8125 296.9375 C-85.32586766 297.87184729 -85.32586766 297.87184729 -86.375 301 C-87.179375 302.485 -87.179375 302.485 -88 304 C-91.5 304.75 -91.5 304.75 -95 305 C-95.99 305.66 -96.98 306.32 -98 307 C-98.33 306.01 -98.66 305.02 -99 304 C-100.65 303.67 -102.3 303.34 -104 303 C-104.33 300.69 -104.66 298.38 -105 296 C-106.98 296 -108.96 296 -111 296 C-111 292.7 -111 289.4 -111 286 C-111.99 285.67 -112.98 285.34 -114 285 C-113.49202991 280.6822542 -112.80317221 276.96697886 -111 273 C-107.7 272.67 -104.4 272.34 -101 272 C-101.33 273.32 -101.66 274.64 -102 276 C-101.34 276.33 -100.68 276.66 -100 277 C-99.67 275.68 -99.34 274.36 -99 273 C-96.36 272.67 -93.72 272.34 -91 272 C-91.556875 270.865625 -92.11375 269.73125 -92.6875 268.5625 C-94.4552914 263.98752132 -93.53778135 261.12390953 -91.76171875 256.6875 C-91.51035156 256.130625 -91.25898437 255.57375 -91 255 C-89.68 255 -88.36 255 -87 255 C-87.515625 254.13375 -88.03125 253.2675 -88.5625 252.375 C-90.23414995 248.45025664 -90.23484046 247.03381218 -89 243 C-87.78187975 240.56867127 -86.43631902 238.31664358 -85 236 C-86.98 235.67 -88.96 235.34 -91 235 C-92.37432457 231.18243176 -91.67975039 227.92744671 -91 224 C-98.99474482 227.55101569 -105.59603324 232.59107479 -109.25 240.8125 C-109.4975 241.534375 -109.745 242.25625 -110 243 C-111.65 243 -113.3 243 -115 243 C-116.125 239.25 -116.125 239.25 -115 237 C-115.928125 237.226875 -116.85625 237.45375 -117.8125 237.6875 C-121 238 -121 238 -122.73046875 236.89453125 C-125.01748986 233.48159206 -123.60183915 229.6925062 -123.03125 225.8125 C-123.0209375 224.884375 -123.010625 223.95625 -123 223 C-123.74636719 222.27296875 -123.74636719 222.27296875 -124.5078125 221.53125 C-126 220 -126 220 -125.9609375 216.96875 C-125.76757812 215.8240625 -125.57421875 214.679375 -125.375 213.5 C-125.19710938 212.3553125 -125.01921875 211.210625 -124.8359375 210.03125 C-124.00779645 207.02827123 -123.41864479 205.87077498 -121 204 C-120.24074219 204.42152344 -119.48148438 204.84304688 -118.69921875 205.27734375 C-117.20841797 206.09912109 -117.20841797 206.09912109 -115.6875 206.9375 C-114.70136719 207.48277344 -113.71523437 208.02804687 -112.69921875 208.58984375 C-110.01437784 210.08354232 -110.01437784 210.08354232 -107 211 C-106.93941406 210.37351562 -106.87882812 209.74703125 -106.81640625 209.1015625 C-106.73261719 208.28429687 -106.64882812 207.46703125 -106.5625 206.625 C-106.48128906 205.81289063 -106.40007812 205.00078125 -106.31640625 204.1640625 C-106 202 -106 202 -105 200 C-102.69 200 -100.38 200 -98 200 C-98.495 198.02 -98.495 198.02 -99 196 C-99.66 196 -100.32 196 -101 196 C-100.32112204 186.15626961 -98.75258905 175.53118947 -92 168 C-94.97 167.67 -97.94 167.34 -101 167 C-101.1953125 164.94921875 -101.390625 162.8984375 -101.5859375 160.84765625 C-101.72257812 160.23792969 -101.85921875 159.62820313 -102 159 C-102.66 158.67 -103.32 158.34 -104 158 C-104 158.66 -104 159.32 -104 160 C-105.65 160 -107.3 160 -109 160 C-109 159.01 -109 158.02 -109 157 C-107.68 157.33 -106.36 157.66 -105 158 C-105.391875 156.9275 -105.78375 155.855 -106.1875 154.75 C-106.455625 153.5125 -106.72375 152.275 -107 151 C-106.00692179 149.66150329 -105.00642948 148.32848691 -104 147 C-104.02145277 144.22722925 -104.49686042 141.74439772 -105 139 C-103.68 139.33 -102.36 139.66 -101 140 C-101 141.32 -101 142.64 -101 144 C-100.01 143.67 -99.02 143.34 -98 143 C-97.34 139.04 -96.68 135.08 -96 131 C-94.6078125 131.7425 -94.6078125 131.7425 -93.1875 132.5 C-90.13472484 134.21289852 -90.13472484 134.21289852 -87 134 C-86.505 130.04 -86.505 130.04 -86 126 C-85.40832031 126.13277344 -84.81664062 126.26554688 -84.20703125 126.40234375 C-80.14553475 127.31005178 -76.08625829 128.2091113 -72 129 C-74.73617603 123.19149409 -74.73617603 123.19149409 -80 120 C-79.54625 119.4225 -79.0925 118.845 -78.625 118.25 C-76.77047097 115.8094951 -76.77047097 115.8094951 -75 112 C-71.7 112.66 -68.4 113.32 -65 114 C-62.88003197 107.64009592 -62.44808612 102.51845098 -63.5 95.8125 C-65.67835488 91.7280846 -68.98421395 90.11062243 -73 88 C-72.91291331 86.54054712 -72.80473093 85.08234132 -72.6875 83.625 C-72.60048828 82.40683594 -72.60048828 82.40683594 -72.51171875 81.1640625 C-72 79 -72 79 -69 77 C-68.42251197 75.03638136 -68.42251197 75.03638136 -68.3125 72.875 C-68.209375 71.59625 -68.10625 70.3175 -68 69 C-65.93757383 68.97282308 -63.87504297 68.9535242 -61.8125 68.9375 C-60.66394531 68.92589844 -59.51539063 68.91429687 -58.33203125 68.90234375 C-55.40699414 68.98807168 -52.83683709 69.32150977 -50 70 C-49.01 68.515 -49.01 68.515 -48 67 C-48.66 65.68 -49.32 64.36 -50 63 C-49.59007812 62.40832031 -49.18015625 61.81664062 -48.7578125 61.20703125 C-48.21898437 60.41683594 -47.68015625 59.62664063 -47.125 58.8125 C-46.59132813 58.03519531 -46.05765625 57.25789062 -45.5078125 56.45703125 C-42.2429672 51.13685588 -41.80269052 47.22627306 -42.375 41.0625 C-43.45559342 27.91118685 -43.45559342 27.91118685 -42 25 C-40.02 25.33 -38.04 25.66 -36 26 C-36.33 27.98 -36.66 29.96 -37 32 C-35.86820313 32.27714844 -34.73640625 32.55429687 -33.5703125 32.83984375 C-32.08851098 33.20560488 -30.60674182 33.57149711 -29.125 33.9375 C-28.37863281 34.11990234 -27.63226562 34.30230469 -26.86328125 34.49023438 C-21.2265625 35.88671875 -21.2265625 35.88671875 -19 37 C-19 35.02 -19 33.04 -19 31 C-20.65 30.67 -22.3 30.34 -24 30 C-24.32160804 21.79899497 -24.32160804 21.79899497 -22 18 C-18.77024137 16.00717021 -16.81094059 15 -13 15 C-13.99 12.03 -13.99 12.03 -15 9 C-13.25183142 8.49363393 -11.50137737 7.99515381 -9.75 7.5 C-8.77546875 7.2215625 -7.8009375 6.943125 -6.796875 6.65625 C-4 6 -4 6 0 6 C0 4.02 0 2.04 0 0 Z " fill="#E8A643" transform="translate(1736,559)"/>
<path d="M0 0 C8.91 0 17.82 0 27 0 C27 296.01 27 592.02 27 897 C18.09 897 9.18 897 0 897 C0 600.99 0 304.98 0 0 Z " fill="#D18731" transform="translate(1779,0)"/>
<path d="M0 0 C4.29 0 8.58 0 13 0 C13 296.01 13 592.02 13 897 C8.71 897 4.42 897 0 897 C0 600.99 0 304.98 0 0 Z " fill="#B87122" transform="translate(1779,0)"/>
<path d="M0 0 C4.29 0 8.58 0 13 0 C13 296.01 13 592.02 13 897 C8.71 897 4.42 897 0 897 C0 600.99 0 304.98 0 0 Z " fill="#935013" transform="translate(120,0)"/>
<path d="M0 0 C4.29 0 8.58 0 13 0 C13 296.01 13 592.02 13 897 C8.71 897 4.42 897 0 897 C0 600.99 0 304.98 0 0 Z " fill="#D1872D" transform="translate(107,0)"/>
<path d="M0 0 C0.66 0 1.32 0 2 0 C2 9.9 2 19.8 2 30 C1.34 30 0.68 30 0 30 C0.00317395 30.96248326 0.00317395 30.96248326 0.00641203 31.94441062 C0.1795476 84.51862485 0.33981739 137.09287549 0.49095565 189.66715747 C0.49996565 192.80055499 0.50899555 195.93395245 0.51802588 199.06734991 C0.84655506 313.21236419 1.05532179 427.35689478 1.06315851 632.60293859 C1.0624977 636.07457173 1.06185509 639.54620486 1.06121445 643.017838 C1.05032982 701.3452294 1.03048564 759.67261556 1 818 C-1.64 818 -4.28 818 -7 818 C-7.03467861 767.5822786 -7.06645006 717.16455641 -7.08468628 666.74682617 C-7.08496239 665.98547846 -7.08523851 665.22413074 -7.08552299 664.43971188 C-7.09152621 647.84387403 -7.097064 631.24803606 -7.10213066 614.6521979 C-7.10462262 606.49892617 -7.1072161 598.34565449 -7.10986328 590.19238281 C-7.1101248 589.38157125 -7.11038632 588.57075968 -7.11065576 587.73537807 C-7.11848026 563.61214079 -7.13168487 539.48891183 -7.14917698 515.36567971 C-7.17621368 477.95525923 -7.19387901 440.54484375 -7.19522725 403.13441288 C-7.1952841 401.58613018 -7.19535174 400.03784748 -7.19543017 398.48956478 C-7.1990686 325.68171601 -7.08203042 252.87725934 -5.30170822 60.43499756 C-5.28116598 58.59329582 -5.26063123 56.751594 -5.24010456 54.90989208 C-5.20299046 51.58217636 -5.16469467 48.25447768 -5.12553513 44.92678547 C-5.08387373 41.31840214 -5.04819235 37.71001282 -5.01816615 34.1015141 C-5.00578047 32.66870142 -4.99178829 31.23590194 -4.97639027 29.80311847 C-4.95427511 27.64588568 -4.93934968 25.48870933 -4.92614937 23.33140564 C-4.91618655 22.08730895 -4.90622374 20.84321226 -4.89595902 19.56141567 C-5.00085561 15.97071173 -5.42299882 12.54293554 -6 9 C-4.02 9 -2.04 9 0 9 C0 6.03 0 3.06 0 0 Z " fill="#C97C19" transform="translate(1802,79)"/>
<path d="M0 0 C2.31 0 4.62 0 7 0 C6.98747192 1.31826279 6.97494385 2.63652557 6.96203613 3.99473572 C6.80792951 20.28237502 6.66082988 36.57007441 6.51822662 52.85781813 C6.50006382 54.93021795 6.48181659 57.00261701 6.46356201 59.07501602 C6.20367553 88.6487075 5.9529818 118.22178065 5.96875 147.796875 C5.96925858 148.81590471 5.96976715 149.83493443 5.97029114 150.88484383 C5.97649664 160.33824137 5.9935443 169.79155568 6.02793121 179.24489307 C6.09939217 199.52325285 5.86999046 219.73758095 5 240 C5.66 240.33 6.32 240.66 7 241 C6.505 241.99 6.505 241.99 6 243 C5.75701906 245.66481894 5.57633281 248.30446394 5.44501591 250.97550678 C5.40287232 251.81556983 5.36072874 252.65563289 5.31730807 253.5211524 C4.79303947 265.13952204 4.86530809 276.76442018 4.87974548 288.39189148 C4.87930869 291.02753889 4.87847368 293.66318349 4.87715632 296.29883033 C4.87509815 301.99865435 4.87669945 307.69846785 4.88079453 313.39829063 C4.88686654 321.87352175 4.88712692 330.34874633 4.88625254 338.82397922 C4.88494303 353.08541551 4.88826327 367.34684715 4.89426994 381.60828209 C4.90019753 395.71826895 4.90403802 409.82825386 4.90512276 423.93824196 C4.9051915 424.81726611 4.90526024 425.69629026 4.90533106 426.60195151 C4.90566942 431.06650981 4.90597079 435.53106812 4.90625793 439.99562643 C4.90835544 471.57529198 4.91508467 503.15495501 4.92456055 534.73461914 C4.93375259 565.40388984 4.94083247 596.07315984 4.94506836 626.74243164 C4.94519989 627.68865815 4.94533141 628.63488465 4.94546692 629.60978469 C4.9467855 639.11263086 4.94806131 648.61547704 4.94930578 658.11832322 C4.95184164 677.47478164 4.95466289 696.83124001 4.95765686 716.18769836 C4.95779415 717.07757532 4.95793144 717.96745228 4.95807289 718.8842952 C4.96726547 778.25619786 4.98310972 837.6280991 5 897 C3.35 897 1.7 897 0 897 C0 600.99 0 304.98 0 0 Z " fill="#6E3005" transform="translate(1839,0)"/>
<path d="M0 0 C1.65 0 3.3 0 5 0 C5 296.01 5 592.02 5 897 C3.35 897 1.7 897 0 897 C0 600.99 0 304.98 0 0 Z " fill="#863D01" transform="translate(102,0)"/>
<path d="M0 0 C0.33 0 0.66 0 1 0 C1 296.01 1 592.02 1 897 C-3.29 897 -7.58 897 -12 897 C-12.02293171 866.23979575 -12.04057056 835.4795935 -12.05106533 804.71938271 C-12.05231568 801.06796737 -12.05361003 797.41655204 -12.05493164 793.76513672 C-12.05519395 793.03836404 -12.05545626 792.31159136 -12.05572652 791.56279527 C-12.06004934 779.87488241 -12.06791776 768.18697459 -12.0771528 756.4990647 C-12.08658444 744.45974871 -12.09207547 732.42043532 -12.09408849 720.38111579 C-12.09532417 713.63841165 -12.09836355 706.89571952 -12.10573006 700.15301895 C-12.13489933 672.41940029 -12.12947597 644.71458629 -11 617 C-10.01 617 -9.02 617 -8 617 C-8 624.92 -8 632.84 -8 641 C-6.35 641 -4.7 641 -3 641 C-3 631.76 -3 622.52 -3 613 C-2.34 613 -1.68 613 -1 613 C-0.67 410.71 -0.34 208.42 0 0 Z " fill="#C98029" transform="translate(119,0)"/>
<path d="M0 0 C1.32 0 2.64 0 4 0 C4 296.01 4 592.02 4 897 C2.68 897 1.36 897 0 897 C0 600.99 0 304.98 0 0 Z " fill="#955216" transform="translate(1788,0)"/>
<path d="M0 0 C0.99 0 1.98 0 3 0 C3.09566715 75.99494893 3.19119504 151.98989803 3.28601074 227.98484802 C3.28742048 229.11472447 3.28883022 230.24460091 3.29028267 231.40871604 C3.32094025 255.98079575 3.35157366 280.55287549 3.38218227 305.12495527 C3.39719906 317.18006459 3.41222118 329.2351739 3.42724609 341.2902832 C3.42874094 342.48972975 3.43023578 343.68917629 3.43177592 344.9249697 C3.47998235 383.60332484 3.52853841 422.28167953 3.57728135 460.960034 C3.62748868 500.80190125 3.67733216 540.64376893 3.7267361 580.48563718 C3.73375988 586.1498429 3.74078771 591.81404861 3.74781799 597.47825432 C3.74920114 598.59274041 3.75058429 599.70722649 3.75200936 600.85548489 C3.77403018 618.59067745 3.79641977 636.32586953 3.81895734 654.06106144 C3.84176468 672.01501082 3.8641596 689.96896068 3.88616979 707.92291106 C3.89804409 717.60028774 3.91007505 727.27766415 3.92262459 736.95503998 C3.99168394 790.30338256 4.01204437 843.65161387 4 897 C2.68 897 1.36 897 0 897 C0 600.99 0 304.98 0 0 Z " fill="#612201" transform="translate(71,0)"/>
<path d="M0 0 C0.99 0 1.98 0 3 0 C2.67 11.22 2.34 22.44 2 34 C2.99 34.33 3.98 34.66 5 35 C4.67 35.99 4.34 36.98 4 38 C3.91790208 39.77313851 3.89253706 41.54920775 3.90234375 43.32421875 C3.90556641 44.35224609 3.90878906 45.38027344 3.91210938 46.43945312 C3.92048828 47.51130859 3.92886719 48.58316406 3.9375 49.6875 C3.94201172 50.77095703 3.94652344 51.85441406 3.95117188 52.97070312 C3.96296257 55.64719085 3.97941937 58.32356777 4 61 C4.99 59.02 5.98 57.04 7 55 C6.34 54.67 5.68 54.34 5 54 C5.66 54 6.32 54 7 54 C7 47.73 7 41.46 7 35 C7.66 35 8.32 35 9 35 C9 103.31 9 171.62 9 242 C5.7 242 2.4 242 -1 242 C-1.03184537 226.22917662 -1.05139042 210.45835152 -1.0625 194.6875 C-1.06378403 192.87814531 -1.06378403 192.87814531 -1.06509399 191.03223801 C-1.09264139 146.87361883 -0.85930424 102.71951072 -0.5 58.5625 C-0.49402628 57.82703304 -0.48805257 57.09156608 -0.48189783 56.33381224 C-0.32921962 37.55580546 -0.16894682 18.77786793 0 0 Z " fill="#C67815" transform="translate(109,655)"/>
<path d="M0 0 C1.32 0 2.64 0 4 0 C4 260.37 4 520.74 4 789 C3.34 789 2.68 789 2 789 C1.34 528.63 0.68 268.26 0 0 Z " fill="#D88D35" transform="translate(1801,108)"/>
<path d="M0 0 C0.99 0.33 1.98 0.66 3 1 C3.01717927 78.3224787 3.03307311 155.64495764 3.04234314 232.96743774 C3.0424812 234.11602578 3.04261925 235.26461382 3.04276149 236.44800755 C3.045756 261.42366894 3.04852595 286.39933036 3.05106533 311.3749918 C3.05231242 323.62711042 3.053609 335.87922904 3.05493164 348.13134766 C3.05512778 349.95997444 3.05512778 349.95997444 3.05532788 351.82554318 C3.05957182 391.17678758 3.06706992 430.52803053 3.07629722 469.87927405 C3.08578015 510.39530436 3.09189701 550.91133386 3.09391499 591.42736526 C3.09420305 597.1800683 3.09452868 602.93277135 3.09487724 608.6854744 C3.09494467 609.81743479 3.09501209 610.94939518 3.09508156 612.1156574 C3.09625277 630.16956145 3.10086193 648.22346298 3.10683203 666.27736601 C3.11279143 684.52906666 3.11495031 702.78076487 3.11350138 721.03246646 C3.11281841 730.88038238 3.11362912 740.72829166 3.11920547 750.57620621 C3.14583701 799.39269524 2.80877708 848.18988306 2 897 C1.34 897 0.68 897 0 897 C0 600.99 0 304.98 0 0 Z " fill="#E19B37" transform="translate(133,0)"/>
<path d="M0 0 C1.32 0 2.64 0 4 0 C4 34.98 4 69.96 4 106 C-1.28 106 -6.56 106 -12 106 C-11.34190523 102.70952616 -10.79749639 100.1777469 -9.625 97.15234375 C-9.23054688 96.12077148 -9.23054688 96.12077148 -8.828125 95.06835938 C-8.41820312 94.01358398 -8.41820312 94.01358398 -8 92.9375 C-5.72098214 87.05889868 -5.72098214 87.05889868 -4 81 C-4.99 81 -5.98 81 -7 81 C-7.33 80.01 -7.66 79.02 -8 78 C-8.495 78.495 -8.495 78.495 -9 79 C-10.99958364 79.04080783 -13.00045254 79.04254356 -15 79 C-15.185625 77.576875 -15.185625 77.576875 -15.375 76.125 C-15.71687177 72.91332809 -15.71687177 72.91332809 -18 71 C-16.68 69.68 -15.36 68.36 -14 67 C-14.66 66.67 -15.32 66.34 -16 66 C-15.45488193 60.8213783 -14.86240027 55.90105335 -13 51 C-10.06043641 49.03598389 -7.73625952 48.77246296 -4.25 48.875 C-3.05117187 48.90207031 -3.05117187 48.90207031 -1.828125 48.9296875 C-1.22484375 48.95289063 -0.6215625 48.97609375 0 49 C-0.09873413 47.98631348 -0.09873413 47.98631348 -0.19946289 46.95214844 C-0.49418097 43.8853948 -0.77844822 40.81775918 -1.0625 37.75 C-1.16626953 36.68652344 -1.27003906 35.62304688 -1.37695312 34.52734375 C-1.47041016 33.50253906 -1.56386719 32.47773437 -1.66015625 31.421875 C-1.74918213 30.47924805 -1.83820801 29.53662109 -1.92993164 28.56542969 C-1.99632642 26.13450182 -1.7238461 24.30681445 -1 22 C-2.98 21.01 -4.96 20.02 -7 19 C-6.401875 18.0925 -5.80375 17.185 -5.1875 16.25 C-2.26788884 11.21081348 -1.22293225 5.64216469 0 0 Z " fill="#D38724" transform="translate(1773,791)"/>
<path d="M0 0 C0 23.76 0 47.52 0 72 C-1.32 72 -2.64 72 -4 72 C-4.66 73.32 -5.32 74.64 -6 76 C-6.53625 75.34 -7.0725 74.68 -7.625 74 C-9.89958592 71.68975201 -9.89958592 71.68975201 -13.25 71.75 C-14.1575 71.8325 -15.065 71.915 -16 72 C-16.08153933 70.41753293 -16.13943557 68.83383727 -16.1875 67.25 C-16.23970703 65.92742187 -16.23970703 65.92742187 -16.29296875 64.578125 C-15.94923684 61.55328417 -14.99772541 60.24416398 -13 58 C-15.31 57.34 -17.62 56.68 -20 56 C-19.57620166 53.89303095 -19.1354597 51.78946473 -18.6875 49.6875 C-18.44386719 48.51574219 -18.20023438 47.34398437 -17.94921875 46.13671875 C-16.97932359 42.93167423 -16.24864194 42.24241302 -14 40 C-13.59831278 37.53097985 -13.59831278 37.53097985 -13.75 34.8125 C-13.78867188 33.3275 -13.78867188 33.3275 -13.828125 31.8125 C-14.00006451 28.9989444 -14.36075401 26.24407528 -14.77734375 23.45703125 C-15.33177551 17.33882819 -15.067035 11.13742676 -15 5 C-15.639375 4.87625 -16.27875 4.7525 -16.9375 4.625 C-17.618125 4.41875 -18.29875 4.2125 -19 4 C-19.33 3.34 -19.66 2.68 -20 2 C-16 -0 -16 -0 0 0 Z " fill="#CF8B31" transform="translate(1884,0)"/>
<path d="M0 0 C1.65 0 3.3 0 5 0 C4.98747192 1.31826279 4.97494385 2.63652557 4.96203613 3.99473572 C4.80792951 20.28237502 4.66082988 36.57007441 4.51822662 52.85781813 C4.50006382 54.93021795 4.48181659 57.00261701 4.46356201 59.07501602 C4.20367553 88.6487075 3.9529818 118.22178065 3.96875 147.796875 C3.96951286 149.32541957 3.96951286 149.32541957 3.97029114 150.88484383 C3.97649664 160.33824137 3.9935443 169.79155568 4.02793121 179.24489307 C4.09939217 199.52325285 3.86999046 219.73758095 3 240 C3.66 240.33 4.32 240.66 5 241 C4.505 241.99 4.505 241.99 4 243 C3.75428228 245.74431856 3.56894062 248.46449393 3.43359375 251.21484375 C3.3909288 252.05490463 3.34826385 252.89496552 3.30430603 253.76048279 C2.79193245 265.00941467 2.96869888 276.26486626 3.09594727 287.52124023 C3.12593037 290.36963511 3.14381202 293.2179054 3.16015625 296.06640625 C3.17361588 296.93705215 3.1870755 297.80769806 3.20094299 298.70472717 C3.20981649 300.80420143 3.11431428 302.90362142 3 305 C2.34 305.66 1.68 306.32 1 307 C0.8194928 287.33344505 0.65477211 267.66677235 0.5 248 C0.49405146 247.24611606 0.48810292 246.49223212 0.48197412 245.71550322 C0.03489629 188.91426233 -0.08877267 132.1153818 -0.0625 75.3125 C-0.06207577 74.36788406 -0.06165154 73.42326813 -0.06121445 72.45002747 C-0.05018355 48.30000831 -0.03017672 24.15000279 0 0 Z " fill="#95540B" transform="translate(1841,0)"/>
<path d="M0 0 C3.63 0 7.26 0 11 0 C11 27.72 11 55.44 11 84 C8.69 84 6.38 84 4 84 C3.34 83.34 2.68 82.68 2 82 C2.495 81.505 2.495 81.505 3 81 C2.21238281 80.82726562 1.42476562 80.65453125 0.61328125 80.4765625 C-2 79 -2 79 -3.14453125 75.5234375 C-3.38982987 74.1444615 -3.61173693 72.76116031 -3.8125 71.375 C-3.93302734 70.66859375 -4.05355469 69.9621875 -4.17773438 69.234375 C-4.47190964 67.49285744 -4.73862626 65.74674161 -5 64 C1.625 62 1.625 62 5 62 C5.33 61.34 5.66 60.68 6 60 C5.21625 59.690625 4.4325 59.38125 3.625 59.0625 C1 58 1 58 -1 57 C-0.62639478 53.26394783 0.16831676 50.55772992 2.03515625 47.35546875 C4.39163372 42.75785106 4.43866268 38.89109446 4.1875 33.8125 C4.13482486 32.2566562 4.08652443 30.70065705 4.04296875 29.14453125 C4.02282715 28.4273291 4.00268555 27.71012695 3.98193359 26.97119141 C4.00405717 24.55732944 4.3878353 22.33183349 5 20 C2.03 20 -0.94 20 -4 20 C-4.33 19.01 -4.66 18.02 -5 17 C-3.35 16.67 -1.7 16.34 0 16 C-0.99 15.34 -1.98 14.68 -3 14 C-2.28547412 9.23649415 -1.20465156 4.65798604 0 0 Z " fill="#D88D29" transform="translate(1766,0)"/>
<path d="M0 0 C4.93000742 4.10833951 5.70308026 8.4973908 6.4375 14.6875 C6.27229007 21.75022452 2.33514245 28.45077827 -0.8125 34.625 C-2.1490712 36.85558728 -2.1490712 36.85558728 -2 39 C-0.68 39.66 0.64 40.32 2 41 C1.4375 43.875 1.4375 43.875 0 47 C-3.625 48.375 -3.625 48.375 -7 49 C-7 48.01 -7 47.02 -7 46 C-7.99 46 -8.98 46 -10 46 C-12.82260203 41.76149989 -15.2271433 38.10503735 -14.6640625 32.88671875 C-13.90115631 30.18855054 -13.05209833 27.59813954 -12 25 C-12.33 24.67 -12.66 24.34 -13 24 C-13.04063832 22.33382885 -13.042721 20.66611905 -13 19 C-12.01 19 -11.02 19 -10 19 C-10.350625 18.030625 -10.70125 17.06125 -11.0625 16.0625 C-11.3671875 14.14453125 -11.3671875 14.14453125 -11 12 C-8.93355971 9.38452641 -6.67766946 7.24117258 -4.19921875 5.015625 C-1.83278706 3.00766701 -1.83278706 3.00766701 0 0 Z " fill="#BE7A25" transform="translate(54,683)"/>
<path d="M0 0 C0.66 0 1.32 0 2 0 C2.06058594 0.63808594 2.12117188 1.27617188 2.18359375 1.93359375 C2.26738281 2.75988281 2.35117188 3.58617187 2.4375 4.4375 C2.51871094 5.26121094 2.59992188 6.08492187 2.68359375 6.93359375 C2.78930815 8.98662025 2.78930815 8.98662025 4 10 C4.14763966 12.57988885 4.23495899 15.13648093 4.28125 17.71875 C4.30886414 18.87836243 4.30886414 18.87836243 4.33703613 20.06140137 C4.41597616 23.38274852 4.48354163 26.70430682 4.55224609 30.02587891 C4.60386609 32.44444146 4.66115941 34.86282348 4.71875 37.28125 C4.73232544 38.03853394 4.74590088 38.79581787 4.7598877 39.5760498 C4.53020687 43.08247349 4.53020687 43.08247349 6 46 C6.08669432 47.4887186 6.10703494 48.981445 6.09765625 50.47265625 C6.09443359 51.37177734 6.09121094 52.27089844 6.08789062 53.19726562 C6.07951172 54.14279297 6.07113281 55.08832031 6.0625 56.0625 C6.05798828 57.01189453 6.05347656 57.96128906 6.04882812 58.93945312 C6.0370011 61.29303065 6.02052025 63.64648477 6 66 C3.36 66 0.72 66 -2 66 C-2.33 62.7 -2.66 59.4 -3 56 C-3.99 55.67 -4.98 55.34 -6 55 C-8.69551156 52.73596421 -9.88167775 50.95329263 -10.31835938 47.43505859 C-10.39398083 44.34326507 -10.3481898 41.27859039 -10.25 38.1875 C-10.23195312 37.11306641 -10.21390625 36.03863281 -10.1953125 34.93164062 C-10.14829392 32.28684535 -10.0825916 29.64388411 -10 27 C-2.25 25.875 -2.25 25.875 0 27 C0 18.09 0 9.18 0 0 Z " fill="#A15E12" transform="translate(65,831)"/>
<path d="M0 0 C-0.0721875 1.09054687 -0.144375 2.18109375 -0.21875 3.3046875 C-0.72598753 11.36994466 -1.10427126 19.41751989 -1.125 27.5 C-1.12951172 28.20366699 -1.13402344 28.90733398 -1.13867188 29.63232422 C-1.12819333 33.36355804 -0.91983891 37.0023606 -0.50390625 40.7109375 C0.15332716 46.84747164 0.19098693 52.95792878 0.1875 59.125 C0.18814453 60.30682861 0.18878906 61.48865723 0.18945312 62.70629883 C0.13585789 71.61467956 -0.49384236 80.21856307 -2 89 C-2.99 89 -3.98 89 -5 89 C-5 59.96 -5 30.92 -5 1 C-1 0 -1 0 0 0 Z " fill="#AC6319" transform="translate(80,808)"/>
<path d="M0 0 C0 19.14 0 38.28 0 58 C-5.61201809 50.98497739 -7.46682892 45.93525901 -7.328125 37.21484375 C-7.32625183 36.39552872 -7.32437866 35.57621368 -7.32244873 34.73207092 C-7.31576222 33.01005954 -7.30191603 31.28806246 -7.28125 29.56616211 C-7.25005052 26.94174944 -7.24026686 24.31793938 -7.234375 21.69335938 C-7.22520476 20.01301357 -7.21482893 18.33267382 -7.203125 16.65234375 C-7.19887512 15.87406723 -7.19462524 15.09579071 -7.19024658 14.29393005 C-7.13578873 10.112235 -6.97752362 6.08935946 -6 2 C-3.84139132 0.46808416 -2.63707871 0 0 0 Z " fill="#CA7D1C" transform="translate(116,388)"/>
<path d="M0 0 C0.66 0 1.32 0 2 0 C2 24.09 2 48.18 2 73 C1.34 73 0.68 73 0 73 C-0.08302368 71.68394775 -0.08302368 71.68394775 -0.16772461 70.34130859 C-0.37589252 67.06477604 -0.58681297 63.78844419 -0.79956055 60.51220703 C-0.89082234 59.09821462 -0.9810085 57.68415234 -1.07006836 56.27001953 C-1.19878209 54.22929569 -1.33145061 52.18886018 -1.46484375 50.1484375 C-1.543396 48.92302246 -1.62194824 47.69760742 -1.70288086 46.43505859 C-1.97879803 43.2451206 -2.42472209 40.14822417 -3 37 C-5.475 37.495 -5.475 37.495 -8 38 C-8 26.78 -8 15.56 -8 4 C-7.01 4 -6.02 4 -5 4 C-5 11.92 -5 19.84 -5 28 C-3.35 28 -1.7 28 0 28 C0 18.76 0 9.52 0 0 Z " fill="#C87B0E" transform="translate(116,613)"/>
<path d="M0 0 C1.32 0.66 2.64 1.32 4 2 C4 13.88 4 25.76 4 38 C1.03 38.495 1.03 38.495 -2 39 C-2.34113382 35.54239094 -2.67143391 32.08382414 -3 28.625 C-3.09539062 27.65949219 -3.19078125 26.69398438 -3.2890625 25.69921875 C-5.02503695 7.22349062 -5.02503695 7.22349062 0 0 Z " fill="#CB7D1C" transform="translate(112,448)"/>
<path d="M0 0 C0.33 0 0.66 0 1 0 C1.12375 1.5778125 1.12375 1.5778125 1.25 3.1875 C2.0595509 7.30271705 3.11709086 9.02972998 6 12 C6.66 12.33 7.32 12.66 8 13 C9.1577506 16.47325181 9.06866652 19.36067448 9 23 C6.03 23 3.06 23 0 23 C0 22.01 0 21.02 0 20 C-0.598125 19.835 -1.19625 19.67 -1.8125 19.5 C-5.21222631 17.1687591 -6.08667319 13.92504084 -7 10 C-6.85886682 6.82450352 -6.50228264 5.58264786 -4.4375 3.1875 C-3.963125 2.795625 -3.48875 2.40375 -3 2 C-2.34 2.66 -1.68 3.32 -1 4 C-0.67 2.68 -0.34 1.36 0 0 Z " fill="#B77220" transform="translate(54,874)"/>
<path d="M0 0 C2.97 0 5.94 0 9 0 C7 4 7 4 4.875 4.75 C3.946875 4.87375 3.946875 4.87375 3 5 C3.33 6.32 3.66 7.64 4 9 C2.71086513 9.67154933 1.41859796 10.33708859 0.125 11 C-0.59429688 11.37125 -1.31359375 11.7425 -2.0546875 12.125 C-4 13 -4 13 -6 13 C-6.33 14.65 -6.66 16.3 -7 18 C-8.65 18 -10.3 18 -12 18 C-14.13848329 14.54552699 -15.14328204 12.82785178 -14.4375 8.75 C-13 6 -13 6 -11.375 4.5625 C-7.74642005 3.70309948 -4.6676798 4.38872003 -1 5 C-0.67 3.35 -0.34 1.7 0 0 Z " fill="#EAA947" transform="translate(1676,0)"/>
<path d="M0 0 C1.98 0 3.96 0 6 0 C7.86558515 3.7311703 7.58899088 8.17481315 6.328125 12.08203125 C5.60916165 13.74717749 4.81112518 15.37774964 4 17 C0.37 16.67 -3.26 16.34 -7 16 C-8.26706235 12.19881294 -7.57172296 10.6149628 -6 7 C-5.01 6.67 -4.02 6.34 -3 6 C-1.29144978 2.99992729 -1.29144978 2.99992729 0 0 Z " fill="#E6A341" transform="translate(1661,101)"/>
<path d="M0 0 C2.31 0.33 4.62 0.66 7 1 C7 3.64 7 6.28 7 9 C7.66 9.33 8.32 9.66 9 10 C7.71240983 12.87231652 6.62122831 15.19225634 4 17 C0.3125 17.1875 0.3125 17.1875 -3 17 C-2.48517081 11.147205 -1.54642808 5.6702363 0 0 Z " fill="#EBAA48" transform="translate(1657,383)"/>
<path d="M0 0 C0.99 0 1.98 0 3 0 C3 8.25 3 16.5 3 25 C4.65 25.33 6.3 25.66 8 26 C6.68 28.64 5.36 31.28 4 34 C2.68 34 1.36 34 0 34 C0 22.78 0 11.56 0 0 Z " fill="#C27717" transform="translate(108,617)"/>
<path d="M0 0 C0.33 0 0.66 0 1 0 C1.02505615 1.05501709 1.0501123 2.11003418 1.07592773 3.19702148 C1.16984109 7.09770628 1.27010034 10.99820625 1.37231445 14.89868164 C1.41572439 16.58939299 1.45739489 18.28014991 1.49731445 19.97094727 C1.55487094 22.39613606 1.61860649 24.82109415 1.68359375 27.24609375 C1.70030624 28.00651474 1.71701874 28.76693573 1.73423767 29.55039978 C1.52091268 33.07082031 1.52091268 33.07082031 3 36 C3.08669432 37.4887186 3.10703494 38.981445 3.09765625 40.47265625 C3.09443359 41.37177734 3.09121094 42.27089844 3.08789062 43.19726562 C3.07951172 44.14279297 3.07113281 45.08832031 3.0625 46.0625 C3.05798828 47.01189453 3.05347656 47.96128906 3.04882812 48.93945312 C3.0370011 51.29303065 3.02052025 53.64648477 3 56 C2.01 56 1.02 56 0 56 C-1.09624742 20.13579905 -1.09624742 20.13579905 -1.125 8.3125 C-1.12951172 7.55541748 -1.13402344 6.79833496 -1.13867188 6.01831055 C-1.12454676 1.12454676 -1.12454676 1.12454676 0 0 Z " fill="#AA6517" transform="translate(68,841)"/>
<path d="M0 0 C2.97 0.495 2.97 0.495 6 1 C5.34 2.65 4.68 4.3 4 6 C3.01 6 2.02 6 1 6 C0.67 6.99 0.34 7.98 0 9 C-0.99 9 -1.98 9 -3 9 C-3 11.97 -3 14.94 -3 18 C-10.23214286 12.10714286 -10.23214286 12.10714286 -12 8 C-7.77050005 5.58314288 -4.87664009 4.65166856 0 5 C0 3.35 0 1.7 0 0 Z " fill="#E8A644" transform="translate(1683,602)"/>
<path d="M0 0 C0.33 0 0.66 0 1 0 C1 8.91 1 17.82 1 27 C-2 27 -2 27 -4.25 24.875 C-6 22 -6 22 -5.9375 19.25 C-4.9667915 15.8848772 -3.91002251 12.56758963 -2.765625 9.2578125 C-1.72878683 6.20019789 -0.86058012 3.11132812 0 0 Z " fill="#CF8B31" transform="translate(1883,75)"/>
<path d="M0 0 C0.66 0 1.32 0 2 0 C6 5.41176471 6 5.41176471 6 8 C0.25 11 0.25 11 -2 11 C-2.12375 10.360625 -2.2475 9.72125 -2.375 9.0625 C-2.58125 8.381875 -2.7875 7.70125 -3 7 C-3.66 6.67 -4.32 6.34 -5 6 C-5 6.99 -5 7.98 -5 9 C-7.9375 8.1875 -7.9375 8.1875 -11 7 C-11.33 6.01 -11.66 5.02 -12 4 C-6.70769231 0.92307692 -6.70769231 0.92307692 -3.125 1.3125 C-2.073125 1.6528125 -2.073125 1.6528125 -1 2 C-0.67 1.34 -0.34 0.68 0 0 Z " fill="#E8A644" transform="translate(271,216)"/>
<path d="M0 0 C0.309375 0.928125 0.309375 0.928125 0.625 1.875 C2.54775888 4.84653645 4.66594527 5.13024659 8 6 C8.287803 9.05071175 8.4472872 11.96060262 8 15 C5.5776532 17.10361696 4.21754366 18 1 18 C1.14107747 16.54119891 1.28802415 15.08296449 1.4375 13.625 C1.51871094 12.81289063 1.59992188 12.00078125 1.68359375 11.1640625 C2 9 2 9 3 7 C0.525 6.01 0.525 6.01 -2 5 C-2 2 -2 2 0 0 Z " fill="#E9A745" transform="translate(1679,465)"/>
<path d="M0 0 C0.33 0.99 0.66 1.98 1 3 C2.65 3.33 4.3 3.66 6 4 C6.33 6.31 6.66 8.62 7 11 C6.01 11.33 5.02 11.66 4 12 C3.34 16.29 2.68 20.58 2 25 C1.34 25 0.68 25 0 25 C0 16.75 0 8.5 0 0 Z " fill="#C37617" transform="translate(109,316)"/>
<path d="M0 0 C0.33 0 0.66 0 1 0 C1.02712066 1.43739513 1.04645067 2.87493863 1.0625 4.3125 C1.07410156 5.11300781 1.08570313 5.91351562 1.09765625 6.73828125 C1 9 1 9 0 12 C-3.3 12 -6.6 12 -10 12 C-10 10.35 -10 8.7 -10 7 C-8.02 7 -6.04 7 -4 7 C-4 5.35 -4 3.7 -4 2 C-2.68 2 -1.36 2 0 2 C0 1.34 0 0.68 0 0 Z " fill="#E9A845" transform="translate(1650,885)"/>
<path d="M0 0 C1.65 0 3.3 0 5 0 C4.67 3.3 4.34 6.6 4 10 C4.66 10.33 5.32 10.66 6 11 C3.27294446 11.22111261 1.53579338 11.30361625 -0.875 9.9375 C-2.66310335 6.85798867 -1.74592606 4.35666727 -1 1 C-0.67 0.67 -0.34 0.34 0 0 Z " fill="#EBAA48" transform="translate(1646,424)"/>
<path d="M0 0 C1.98 0 3.96 0 6 0 C5.67 3.3 5.34 6.6 5 10 C3.35 10 1.7 10 0 10 C-0.99 10.495 -0.99 10.495 -2 11 C-2 8 -2 8 0.5 5.3125 C1.325 4.549375 2.15 3.78625 3 3 C2.01 2.01 1.02 1.02 0 0 Z " fill="#DD942F" transform="translate(1765,576)"/>
<path d="M0 0 C2.64 0 5.28 0 8 0 C7.47731534 2.76276177 6.89130413 5.3260876 6 8 C4.35 7.67 2.7 7.34 1 7 C0.67 4.69 0.34 2.38 0 0 Z " fill="#E5A03E" transform="translate(1740,269)"/>
<path d="M0 0 C0.33 0 0.66 0 1 0 C1 5.94 1 11.88 1 18 C-0.98 18 -2.96 18 -5 18 C-4.72285156 17.45472656 -4.44570312 16.90945313 -4.16015625 16.34765625 C-1.48711084 10.78277524 -0.39105067 6.15904804 0 0 Z " fill="#CF8B31" transform="translate(1883,879)"/>
<path d="M0 0 C0.20625 0.598125 0.4125 1.19625 0.625 1.8125 C2.50926082 4.81018767 4.81132084 5.61361776 8 7 C5.4345406 9.5654594 3.52313332 9.54046087 0 10 C-1.125 3.375 -1.125 3.375 0 0 Z " fill="#E4A03C" transform="translate(225,370)"/>
<path d="M0 0 C0.33 0 0.66 0 1 0 C1 4.62 1 9.24 1 14 C0.01 13.67 -0.98 13.34 -2 13 C-1.85966889 11.02043559 -1.7125877 9.04134859 -1.5625 7.0625 C-1.48128906 5.96035156 -1.40007812 4.85820313 -1.31640625 3.72265625 C-1 1 -1 1 0 0 Z " fill="#CF8B31" transform="translate(1883,621)"/>
</svg>
